<?xml version="1.0" standalone="no"?>
<!DOCTYPE svg PUBLIC "-//W3C//DTD SVG 20010904//EN"
 "http://www.w3.org/TR/2001/REC-SVG-20010904/DTD/svg10.dtd">
<svg version="1.0" xmlns="http://www.w3.org/2000/svg"
 width="554.000000pt" height="578.000000pt" viewBox="0 0 554.000000 578.000000"
 preserveAspectRatio="xMidYMid meet">

<g transform="translate(0.000000,578.000000) scale(0.100000,-0.100000)"
fill="#000000" stroke="none">
<path d="M2670 4791 l-45 -6 -858 -1070 c-472 -588 -862 -1080 -867 -1093 -6
-14 -10 -219 -10 -496 0 -445 1 -474 18 -489 17 -15 64 -17 474 -17 250 0 476
3 501 6 44 6 52 13 120 93 41 47 183 223 317 391 418 524 667 824 696 842 102
58 245 3 272 -104 6 -24 14 -182 17 -353 4 -204 11 -334 20 -379 41 -198 199
-376 410 -461 l70 -29 519 -4 518 -4 25 24 26 23 -6 773 c-4 562 -9 778 -18
788 -25 30 -89 34 -529 34 l-445 0 -50 29 c-63 37 -117 90 -141 139 -18 35
-19 77 -22 677 l-3 640 -26 28 -27 27 -455 -2 c-251 0 -476 -4 -501 -7z"/>
</g>
</svg>
